{"title":"The.Independents.2014.09.23.WS.SDTV.x264-XAiO","uid":11145013,"size":372070516,"categoryP":"video","categoryS":"tv_shows","magnet":"?xt=urn:btih:2335f8e830b6381e1d46883f5f481f8597c14bcd&amp;dn=The.Independents.2014.09.23.WS.SDTV.x264-XAiO&amp;tr=udp%3A%2F%2Ftracker.openbittorrent.com%3A80&amp;tr=udp%3A%2F%2Fopen.demonii.com%3A1337&amp;tr=udp%3A%2F%2Ftracker.coppersurfer.tk%3A6969&amp;tr=udp%3A%2F%2Fexodus.desync.com%3A6969","seeders":1,"leechers":0,"uploader":"Reive","files":-1,"time":1412245449,"description":"If you've got time, a DVR &amp; Fox Business get a hold of me. I'm looking for another person to rip these. My DVR is shotty and I will not be able to cap these consistently. Just looking for someone to be backup in case my DVR fails.\n\n\nTONIGHT ON THE INDEPENDENTS\n---------------------------\nLast night's episode of The Independents got a little caddywhompus with the whole bombing-begins-15-minutes-into-the-show thing, but such are the joys of live television. On tonight's installment (Fox Business Network, 9 p.m. ET, 6 p.m. PT, with re-airs three hours later) we'll dive back into bombing and murk, with a hawkish Party Panel of former U.S. ambassador to the United Nations John Bolton and laconic former GOP congressman Thaddeus McCotter. Ubiquitous foreign policy talker Michael Weiss will then come on to walk us through the latest Scariest Threat You Never Heard About Until Literally Like Twelve Hours Ago, Khorasan.\n\nJohn Yoder, director of the Justice Department's Asset Forfeiture Office from 1983-85, will explain why he thinks it should be abolished. The co-hosts will discuss the implications of jumping the White House fence. Bolton and McCotter will be forced to comment on cuddling apps, and I will likely cheer the Transportation Security Administration's placing of Weekly Standard journalist Stephen Hayes on the &quot;high risk&quot; list of airline passengers, because of comedy gold.\n\nAssuming no pre-emption by crazy breaking news, online-only aftershow begins at foxbusiness.com/independents just after 10. Follow The Independents on Facebook atfollow on Twitter @ independentsFBN, and click on this page for more video of past segments.\n\nreason[.]com/blog/2014/09/23/tonight-on-the-independents-our-new-war\n\n\nINFO\n----\nRipped with the Diamond VC500. Using the software that came packaged with the dongle. (It's called EZ Ripper.) In that software there's a &quot;DVD Standard&quot; which rips the video to .mpg at 720x480 with some terrible black bars. I load that file into AVIDemux. Cut the file into multiple parts to remove the commercials. Rejoin, crop, and resize those files using the same tool. For conversion I used MPEG4 AVC (x264), 2 pass on video and AAC (faac) on audio.\n\nI am not part of the scene. I just admire their naming standards.\n\nGeneral \nComplete name : H:MediaBrianTelevisionThe IndependentsThe Independents 2014The.Independents.2014.09.23.WS.SDTV.x264-XAiO.mp4 \nFormat : MPEG-4 \nFormat profile : Base Media \nCodec ID : isom \nFile size : 355 MiB \nDuration : 45mn 26s \nOverall bit rate : 1 092 Kbps \nWriting application : Lavf54.63.104 \n\nVideo \nID : 1 \nFormat : AVC \nFormat/Info : Advanced Video Codec \nFormat profile : &lt;a class=&quot;__cf_email__&quot; href=&quot;/cdn-cgi/l/email-protection&quot; data-cfemail=&quot;b1f9d8d6d9f1fd829f81&quot;&gt;[email&amp;#160;protected]&lt;/a&gt;&lt;script cf-hash='f9e31' type=&quot;text/javascript&quot;&gt;\n/* &lt;![CDATA[ */!function(){try{var t=&quot;currentScript&quot;in document?document.currentScript:function(){for(var t=document.getElementsByTagName(&quot;script&quot;),e=t.length;e--;)if(t[e].getAttribute(&quot;cf-hash&quot;))return t[e]}();if(t&amp;&amp;t.previousSibling){var e,r,n,i,c=t.previousSibling,a=c.getAttribute(&quot;data-cfemail&quot;);if(a){for(e=&quot;&quot;,r=parseInt(a.substr(0,2),16),n=2;a.length-n;n+=2)i=parseInt(a.substr(n,2),16)^r,e+=String.fromCharCode(i);e=document.createTextNode(e),c.parentNode.replaceChild(e,c)}}}catch(u){}}();/* ]]&gt; */&lt;/script&gt; \nFormat settings, CABAC : Yes \nFormat settings, ReFrames : 4 frames \nCodec ID : avc1 \nCodec ID/Info : Advanced Video Coding \nDuration : 45mn 26s \nBit rate : 953 Kbps \nWidth : 720 pixels \nHeight : 404 pixels \nDisplay aspect ratio : 16:9 \nFrame rate mode : Variable \nFrame rate : 29.970 fps \nMinimum frame rate : 9.990 fps \nMaximum frame rate : 29.970 fps \nColor space : YUV \nChroma subsampling : 4:2:0 \nBit depth : 8 bits \nScan type : Progressive \nBits/(Pixel*Frame) : 0.109 \nStream size : 310 MiB (87%) \nWriting library : x264 core 123 r2189 35cf912 \nEncoding settings : cabac=1 / ref=3 / deblock=1:0:0 / analyse=0x3:0x133 / me=hex / subme=7 / psy=1 / psy_rd=1.00:0.00 / mixed_ref=1 / me_range=16 / chroma_me=1 / trellis=1 / 8x8dct=1 / cqm=0 / deadzone=21,11 / fast_pskip=1 / chroma_qp_offset=-2 / threads=6 / sliced_threads=0 / nr=0 / decimate=1 / interlaced=0 / bluray_compat=0 / constrained_intra=0 / bframes=3 / b_pyramid=2 / b_adapt=1 / b_bias=0 / direct=1 / weightb=1 / open_gop=0 / weightp=2 / keyint=250 / keyint_min=25 / scenecut=40 / intra_refresh=0 / rc_lookahead=40 / rc=2pass / mbtree=1 / bitrate=953 / ratetol=1.0 / qcomp=0.60 / qpmin=10 / qpmax=51 / qpstep=4 / cplxblur=20.0 / qblur=0.5 / ip_ratio=1.40 / aq=1:1.00 \n\nAudio \nID : 2 \nFormat : AAC \nFormat/Info : Advanced Audio Codec \nFormat profile : LC \nCodec ID : 40 \nDuration : 45mn 26s \nBit rate mode : Constant \nBit rate : 128 Kbps \nChannel(s) : 2 channels \nChannel positions : Front: L R \nSampling rate : 48.0 KHz \nCompression mode : Lossy \nStream size : 41.6 MiB (12%) \nLanguage : unk ","torrent":{"xt":"urn:btih:2335f8e830b6381e1d46883f5f481f8597c14bcd","amp;dn":"The.Independents.2014.09.23.WS.SDTV.x264-XAiO","amp;tr":["udp%3A%2F%2Ftracker.openbittorrent.com%3A80","udp%3A%2F%2Fopen.demonii.com%3A1337","udp%3A%2F%2Ftracker.coppersurfer.tk%3A6969","udp%3A%2F%2Fexodus.desync.com%3A6969"],"infoHash":"2335f8e830b6381e1d46883f5f481f8597c14bcd","infoHashBuffer":{"type":"Buffer","data":[35,53,248,232,48,182,56,30,29,70,136,63,95,72,31,133,151,193,75,205]},"announce":[],"urlList":[]}}